<svg xmlns="http://www.w3.org/2000/svg" width="48" height="49" fill="none" viewBox="0 0 48 49" aria-hidden="true" focusable="false"><g id="Frame 316128411"><g id="Group 316127878"><g id="Group 316127868"><g id="Group 316127866" stroke="#121117" stroke-width="2"><path id="Rectangle 4524" d="M10 16.5h6v25h-6z"></path><path id="Rectangle 4527" d="M10.025 15.5c.157-3.052 1.013-5.31 1.85-6.83.404-.73.805-1.293 1.125-1.692.32.399.72.961 1.124 1.693.838 1.519 1.694 3.777 1.85 6.829z"></path><rect id="Rectangle 4525" width="4" height="4" x="7" y="15.5" fill="#fff" rx="2"></rect><rect id="Rectangle 4526" width="4" height="4" x="15" y="15.5" fill="#fff" rx="2"></rect></g><g id="Group 316127867" stroke="#121117" stroke-width="2"><path id="Rectangle 4524_2" d="M32 16.5h6v25h-6z"></path><path id="Rectangle 4527_2" d="M32.025 15.5c.157-3.052 1.013-5.31 1.85-6.83.404-.73.805-1.293 1.125-1.692.32.399.72.961 1.124 1.693.838 1.519 1.694 3.777 1.85 6.829z"></path><rect id="Rectangle 4525_2" width="4" height="4" x="29" y="15.5" fill="#fff" rx="2"></rect><rect id="Rectangle 4526_2" width="4" height="4" x="37" y="15.5" fill="#fff" rx="2"></rect></g><path id="Vector 300" stroke="#121117" stroke-width="2" d="M16 30.5c0-7 8-10 8-10s8 3.5 8 10"></path><path id="Rectangle 4497" fill="#121117" d="M24 24.5h2v2h-2z" transform="rotate(45 24 24.5)"></path><path id="Vector 301" stroke="#121117" stroke-width="2" d="M21 41v-3.5c0-2.1 3-3.5 3-3.5s3 1.55 3 3.5v3"></path><path id="Rectangle 4528" fill="#121117" d="M7 29.5h34v2H7z"></path><path id="Rectangle 4529" fill="#121117" d="M6 40.5h36v2H6z"></path></g></g></g></svg>