<svg xmlns="http://www.w3.org/2000/svg" width="48" height="48" fill="none" viewBox="0 0 48 48" aria-hidden="true" focusable="false"><g id="Frame 316128410"><g id="Group 316127876"><g id="Group 316127873"><g id="Group 316127871"><path id="Rectangle 4546" fill="#121117" d="M29 19h2v3h-2z"></path><path id="Rectangle 4549" fill="#121117" d="M32 19h2v3h-2z"></path><path id="Rectangle 4545" stroke="#121117" stroke-width="2" d="M27 14.81v1h4V14h1v1.81h4V14h1v17H26V14h1z"></path></g><g id="Group 316127872"><path id="Rectangle 4546_2" fill="#121117" d="M14 14h2v3h-2z"></path><path id="Rectangle 4549_2" fill="#121117" d="M17 14h2v3h-2z"></path><path id="Rectangle 4545_2" stroke="#121117" stroke-width="2" d="M12 9.81v1h4V9h1v1.81h4V9h1v17H11V9h1z"></path></g><path id="Rectangle 4550" fill="#fff" d="M9 17h15v7H9z"></path><g id="Group 316127870"><path id="Rectangle 4542" fill="#fff" stroke="#121117" stroke-width="2" d="M22 21v-1h1v19H10V20h1v2h5v-2h1v2h5z"></path><path id="Rectangle 4543" fill="#121117" d="M12 26h2v4h-2z"></path><path id="Rectangle 4547" fill="#121117" d="M15.5 26h2v4h-2z"></path><path id="Rectangle 4548" fill="#121117" d="M19 26h2v4h-2z"></path></g><path id="Vector 304" fill="#fff" stroke="#121117" stroke-width="2" d="M37 23v8.42L23.734 39H23v-8.42L36.266 23z"></path><path id="Rectangle 4551" fill="#121117" d="M7 38h4v2H7z"></path><path id="Rectangle 4552" fill="#121117" d="M36 30h4v2h-4z"></path></g></g></g></svg>