<svg xmlns="http://www.w3.org/2000/svg" width="48" height="49" fill="none" viewBox="0 0 48 49" aria-hidden="true" focusable="false"><g id="Frame 316128408"><g id="Group 316127864"><path id="Rectangle 4468" fill="#fff" stroke="#121117" stroke-width="2" d="M22 7.5h4v3h-4z"></path><g id="Subtract"><mask id="path-2-inside-1_1503_905" fill="#fff"><path d="M22 9.498h4c.5 9.003 7 35 7 35H15s7-26 7-35"></path></mask><path fill="#121117" d="M22 9.498v-2h-2v2zm4 0 1.997-.11-.105-1.89H26zm7 35v2h2.562l-.622-2.485zm-18 0-1.931-.52-.679 2.52H15zm7-33h4v-4h-4zm2.003-1.889c.26 4.696 2.054 13.616 3.732 21.197a605 605 0 0 0 3.306 14.1l.014.057.003.015.001.004L33 44.499l1.94-.485v-.004q-.003-.005-.004-.014l-.014-.055-.054-.217-.206-.836a601.76 601.76 0 0 1-3.022-12.945c-1.697-7.669-3.404-16.248-3.643-20.555zM33 42.498H15v4h18zm-18 2 1.931.52v-.002l.002-.003q0-.006.004-.015l.015-.058a146 146 0 0 0 .283-1.069 441.288 441.288 0 0 0 3.214-13.05C22.185 23.258 24 14.27 24 9.498h-4c0 4.228-1.685 12.74-3.45 20.428a438 438 0 0 1-3.462 13.98l-.014.055-.004.013-.001.003z" mask="url(#path-2-inside-1_1503_905)"></path></g><path id="Rectangle 4473" fill="#121117" d="M12 42.5h24v2H12z"></path><path id="Rectangle 4471" fill="#121117" stroke="#121117" d="M15.5 35h17v1h-17z"></path><path id="Rectangle 4475" fill="#121117" stroke="#121117" d="M16.5 29h15v1h-15z"></path><path id="Rectangle 4474" fill="#121117" d="M23.333 3.5h1.334l.333 2h-2z"></path><path id="Ellipse 16" stroke="#121117" stroke-width="2" d="m28 43.5-3.328-14h-1.344L20 43.5s.989-3.5 4-3.5 4 3.5 4 3.5Z"></path></g></g></svg>