<svg xmlns="http://www.w3.org/2000/svg" width="48" height="48" fill="none" viewBox="0 0 48 48" aria-hidden="true" focusable="false"><g id="Frame 316128409"><g id="Group 316127875"><path id="Rectangle 4499" stroke="#121117" stroke-width="2" d="M10 24h4v18h-4z"></path><path id="Rectangle 4500" stroke="#121117" stroke-width="2" d="M18 24h4v18h-4z"></path><path id="Rectangle 4501" stroke="#121117" stroke-width="2" d="M26 24h4v18h-4z"></path><path id="Rectangle 4502" stroke="#121117" stroke-width="2" d="M34 24h4v18h-4z"></path><path id="Rectangle 4503" stroke="#121117" stroke-width="2" d="M10 19h28v5H10v-5Z"></path><path id="Rectangle 4505" stroke="#121117" stroke-width="2" d="M13 14h22v5H13v-5Z"></path><path id="Rectangle 4504" fill="#121117" d="M7 18h34v2H7z"></path><path id="Rectangle 4506" fill="#121117" d="M10 13h28v2H10z"></path><path id="Rectangle 4507" fill="#121117" d="M17 10h14v2H17z"></path><path id="Rectangle 4443" fill="#121117" d="M23.333 5h1.334L26 9h-4z"></path><path id="Rectangle 4508" fill="#121117" d="M18 6h1l2 3h-3z"></path><path id="Rectangle 4509" fill="#121117" d="M30 6h-1l-2 3h3z"></path><path id="Rectangle 4510" fill="#121117" d="M13 21h1v1h-1z"></path><path id="Rectangle 4511" fill="#121117" d="M16 21h1v1h-1z"></path><path id="Rectangle 4518" fill="#121117" d="M16 16h1v1h-1z"></path><path id="Rectangle 4512" fill="#121117" d="M19 21h1v1h-1z"></path><path id="Rectangle 4519" fill="#121117" d="M19 16h1v1h-1z"></path><path id="Rectangle 4513" fill="#121117" d="M22 21h1v1h-1z"></path><path id="Rectangle 4520" fill="#121117" d="M22 16h1v1h-1z"></path><path id="Rectangle 4514" fill="#121117" d="M25 21h1v1h-1z"></path><path id="Rectangle 4521" fill="#121117" d="M25 16h1v1h-1z"></path><path id="Rectangle 4515" fill="#121117" d="M28 21h1v1h-1z"></path><path id="Rectangle 4522" fill="#121117" d="M28 16h1v1h-1z"></path><path id="Rectangle 4516" fill="#121117" d="M31 21h1v1h-1z"></path><path id="Rectangle 4523" fill="#121117" d="M31 16h1v1h-1z"></path><path id="Rectangle 4517" fill="#121117" d="M34 21h1v1h-1z"></path><path id="Rectangle 4530" fill="#121117" d="M6 41h36v2H6z"></path></g></g></svg>