<svg xmlns="http://www.w3.org/2000/svg" width="48" height="48" fill="none" viewBox="0 0 48 48" aria-hidden="true" focusable="false"><g id="Frame 316128406"><g id="Group 316127863" fill="#121117"><path id="Rectangle 4447" d="M15.911 13.501h23v2h-23z" transform="rotate(10 15.911 13.501)"></path><path id="Rectangle 4450" d="M19.617 4h18v2h-18z" transform="rotate(10 19.617 4)"></path><path id="Rectangle 4448" d="M14.175 23.349h23v2h-23z" transform="rotate(10 14.175 23.349)"></path><path id="Rectangle 4449" d="M12.438 33.197h23v2h-23z" transform="rotate(10 12.438 33.197)"></path><path id="Rectangle 4451" d="M16.549 15.645h2v28h-2z" transform="rotate(10 16.549 15.645)"></path><path id="Rectangle 4464" d="M20.255 6.143h2v8h-2z" transform="rotate(10 20.255 6.143)"></path><path id="Rectangle 4465" d="M34.042 8.574h2v8h-2z" transform="rotate(10 34.042 8.574)"></path><path id="Rectangle 4452" d="M35.26 18.943h2v24h-2z" transform="rotate(10 35.26 18.943)"></path><path id="Rectangle 4453" d="M19.88 19.786a1.5 1.5 0 1 1 2.955.52l-.782 4.432-2.954-.52z"></path><path id="Rectangle 4456" d="M18.144 29.634a1.5 1.5 0 0 1 2.954.52l-.781 4.432-2.955-.52z"></path><path id="Rectangle 4459" d="M16.407 39.481a1.5 1.5 0 0 1 2.954.521l-.607 3.447-2.955-.521z"></path><path id="Rectangle 4454" d="M24.804 20.653a1.5 1.5 0 1 1 2.954.52l-.781 4.433-2.954-.521z"></path><path id="Rectangle 4462" d="M23.586 10.285a1.5 1.5 0 0 1 2.955.52l-.782 4.432-2.954-.52z"></path><path id="Rectangle 4457" d="M23.068 30.502a1.5 1.5 0 1 1 2.954.52l-.781 4.432-2.955-.52z"></path><path id="Rectangle 4460" d="M21.331 40.35a1.5 1.5 0 0 1 2.955.521l-.434 2.462-2.955-.52z"></path><path id="Rectangle 4455" d="M29.728 21.522a1.5 1.5 0 1 1 2.955.521l-.782 4.432-2.954-.521z"></path><path id="Rectangle 4463" d="M28.51 11.153a1.5 1.5 0 0 1 2.955.52l-.782 4.433-2.954-.521z"></path><path id="Rectangle 4458" d="M27.992 31.37a1.5 1.5 0 1 1 2.954.52l-.781 4.432-2.954-.52z"></path><path id="Rectangle 4461" d="M26.255 41.217a1.5 1.5 0 1 1 2.955.521l-.26 1.478-2.955-.521z"></path><path id="Rectangle 4466" d="M10 41.652h27v2H10z"></path></g></g></svg>