<svg xmlns="http://www.w3.org/2000/svg" width="48" height="49" fill="none" viewBox="0 0 48 49" aria-hidden="true" focusable="false"><g id="Frame 316128413"><g id="Group 316127874"><path id="Ellipse 18" stroke="#121117" stroke-width="2" d="M36 10.914c0 6.904-5.596 12.5-12.5 12.5S11 17.818 11 10.914"></path><path id="Ellipse 20" stroke="#121117" stroke-width="2" d="M11 10.914c0 3.621-1.54 6.882-4 9.165"></path><path id="Ellipse 21" stroke="#121117" stroke-width="2" d="M36 10.914c0 3.621 1.54 6.882 4 9.165"></path><path id="Vector 294" stroke="#121117" stroke-width="2" d="M7 29.414h33"></path><path id="Rectangle 4491" fill="#121117" d="M7 31.414h33v2H7z"></path><path id="Rectangle 4494" fill="#121117" d="M7 38.914h33v2H7z"></path><path id="Rectangle 4495" fill="#121117" d="M9 41.914h7v2H9z"></path><path id="Rectangle 4496" fill="#121117" d="M31 41.914h7v2h-7z"></path><path id="Vector 295" stroke="#121117" stroke-width="2" d="M11 11.414v17.5"></path><path id="Vector 300" stroke="#121117" stroke-width="2" d="M17 21.914v8.5"></path><path id="Vector 302" stroke="#121117" stroke-width="2" d="M23.5 23.914v6.5"></path><path id="Vector 303" stroke="#121117" stroke-width="2" d="M30 21.914v6.5"></path><path id="Vector 296" stroke="#121117" stroke-width="2" d="M36 11.414v17.5"></path><path id="Rectangle 4492" stroke="#121117" stroke-width="2" d="M14 38.414v-6h-3v6"></path><path id="Rectangle 4493" stroke="#121117" stroke-width="2" d="M33 38.414v-6h3v6"></path><path id="Rectangle 4497" fill="#121117" d="M11 5.5h3v3h-3z" transform="rotate(45 11 5.5)"></path><path id="Rectangle 4498" fill="#121117" d="M36 5.5h3v3h-3z" transform="rotate(45 36 5.5)"></path></g></g></svg>