<svg xmlns="http://www.w3.org/2000/svg" width="48" height="49" fill="none" viewBox="0 0 48 49" aria-hidden="true" focusable="false"><g id="Frame 316128407"><g id="Group 316127865"><path id="Rectangle 4484" fill="#121117" d="M8 42.5h31v2H8z"></path><path id="Ellipse 17" stroke="#121117" stroke-width="2" d="M31 38.5s-1.854-6-7.5-6-7.5 6-7.5 6"></path><g id="Group 316127858"><path id="Rectangle 1761" stroke="#121117" stroke-width="2" d="M33.5 15.867c.24.891.505 1.974.771 3.239.863 4.1 1.729 10.11 1.729 17.714v6.68h-5v-6.68c0-7.604.866-13.615 1.729-17.714.266-1.265.531-2.348.771-3.24Z"></path></g><path id="Rectangle 1761_2" stroke="#121117" stroke-width="2" d="M28.5 11.476c.238 1.056.502 2.328.766 3.802C30.132 20.118 31 27.13 31 35.782V43.5h-5v-7.718c0-8.652.868-15.663 1.734-20.504.264-1.474.527-2.746.766-3.802Z"></path><g id="Group 316127857"><path id="Rectangle 1761_3" stroke="#121117" stroke-width="2" d="M23.5 20.517c.241.786.51 1.739.778 2.844C25.138 26.897 26 31.992 26 38.2v5.3h-5v-5.3c0-6.208.862-11.303 1.722-14.839a50 50 0 0 1 .778-2.844Z"></path></g><g id="Group 316127859"><path id="Rectangle 1761_4" stroke="#121117" stroke-width="2" d="M13.5 15.867c-.24.891-.505 1.974-.771 3.239C11.866 23.206 11 29.216 11 36.82v6.68h5v-6.68c0-7.604-.866-13.615-1.729-17.714a60 60 0 0 0-.771-3.24Z"></path></g><path id="Rectangle 4476" stroke="#121117" stroke-width="2" d="M18.5 11.476a86 86 0 0 0-.766 3.802C16.868 20.118 16 27.13 16 35.782V43.5h5v-7.718c0-8.652-.868-15.663-1.734-20.504a86 86 0 0 0-.766-3.802Z"></path><path id="Rectangle 4479" fill="#121117" d="M13.414 8.5h2v2h-2z" transform="rotate(45 13.414 8.5)"></path><path id="Rectangle 4480" fill="#121117" d="M18.414 3.5h2v2h-2z" transform="rotate(45 18.414 3.5)"></path><path id="Rectangle 4481" fill="#121117" d="M23.414 13.5h2v2h-2z" transform="rotate(45 23.414 13.5)"></path><path id="Rectangle 4482" fill="#121117" d="M28.414 3.5h2v2h-2z" transform="rotate(45 28.414 3.5)"></path><path id="Rectangle 4483" fill="#121117" d="M33.414 8.5h2v2h-2z" transform="rotate(45 33.414 8.5)"></path></g></g></svg>