<svg width="28" height="28" viewBox="0 0 28 28" fill="none" xmlns="http://www.w3.org/2000/svg">
<rect width="28" height="28" rx="2" fill="#F6F5F5"/>
<path d="M13.7995 4.45454C12.0623 4.45454 10.6591 5.84067 10.6591 7.55682C10.6591 9.25978 12.0623 10.6459 13.7862 10.6591C13.3585 10.6459 13.0245 10.3027 13.0245 9.88021C13.0245 9.45778 13.3719 9.10136 13.8129 9.10136C15.6838 9.10136 19.8399 9.10136 21.6707 9.10136C22.967 9.10136 24.0227 8.05847 24.0227 6.77796C24.0227 5.49743 22.967 4.45454 21.6707 4.45454L13.7995 4.45454Z" fill="#5720B7"/>
<path d="M9.98137 10.6591C8.24409 10.6591 6.84091 12.0452 6.84091 13.7614C6.84091 15.4643 8.24409 16.8504 9.96799 16.8636C9.54036 16.8504 9.20628 16.5072 9.20628 16.0848C9.20628 15.6623 9.55374 15.3059 9.99474 15.3059C11.8656 15.3059 16.0217 15.3059 17.8526 15.3059C19.1488 15.3059 20.2045 14.263 20.2045 12.9825C20.2045 11.702 19.1488 10.6591 17.8526 10.6591L9.98137 10.6591Z" fill="#6927DA"/>
<path d="M7.34204 16.8636C5.48067 16.8636 3.97726 18.3564 3.97726 20.2045C3.97726 22.0385 5.48067 23.5312 7.32771 23.5455C6.86953 23.5312 6.51158 23.1616 6.51158 22.7067C6.51158 22.2517 6.88386 21.8679 7.35637 21.8679C9.36089 21.8679 13.8139 21.8679 15.7755 21.8679C17.1643 21.8679 18.2954 20.7448 18.2954 19.3658C18.2954 17.9868 17.1643 16.8636 15.7755 16.8636L7.34204 16.8636Z" fill="#7839EE"/>
</svg>
