<svg width="40" height="38" viewBox="0 0 40 38" fill="none" xmlns="http://www.w3.org/2000/svg">
<path d="M19.345 6.57345e-07C15.835 8.0243e-07 13 2.68086 13 6C13 9.29364 15.835 11.9744 19.318 12C18.454 11.9744 17.779 11.3107 17.779 10.4936C17.779 9.67659 18.481 8.98725 19.372 8.98725C23.152 8.98725 31.549 8.98725 35.248 8.98725C37.867 8.98725 40 6.97023 40 4.49365C40 2.01702 37.867 -1.08255e-07 35.248 0L19.345 6.57345e-07Z" fill="#5720B7"/>
<path d="M12.11 12C8.73 12 6 14.9043 6 18.5C6 22.0681 8.73 24.9723 12.084 25C11.252 24.9723 10.602 24.2532 10.602 23.3681C10.602 22.483 11.278 21.7362 12.136 21.7362C15.776 21.7362 23.862 21.7362 27.424 21.7362C29.946 21.7362 32 19.5511 32 16.8681C32 14.1851 29.946 12 27.424 12L12.11 12Z" fill="#6927DA"/>
<path d="M6.815 25C3.045 25 -1.09861e-07 27.9043 0 31.5C1.09017e-07 35.0681 3.045 37.9723 6.78598 38C5.85799 37.9723 5.133 37.2532 5.133 36.3681C5.133 35.483 5.88702 34.7362 6.84403 34.7362C10.904 34.7362 19.923 34.7362 23.896 34.7362C26.709 34.7362 29 32.5511 29 29.8681C29 27.1851 26.709 25 23.896 25L6.815 25Z" fill="#7839EE"/>
</svg>
